<svg width="32" height="32" viewBox="0 0 32 32" fill="none" xmlns="http://www.w3.org/2000/svg">
    <g clip-path="url(#clip0_2746_4261)">
        <path
            d="M24.2075 3.94699C26.5326 5.78145 28.2626 8.17916 29.1554 11.022C29.1554 11.1393 29.1554 11.2567 29.1554 11.3775C29.3011 11.3714 29.4469 11.3652 29.5971 11.3588C29.7886 11.354 29.9802 11.3492 30.1776 11.3442C30.4622 11.3349 30.4622 11.3349 30.7526 11.3255C31.3686 11.3853 31.5665 11.4773 31.9998 11.9109C32.0919 12.3804 32.0919 12.3804 32.0943 12.9456C32.0958 13.153 32.0973 13.3605 32.0988 13.5742C32.0955 13.7953 32.0922 14.0164 32.0887 14.2442C32.0863 14.47 32.0839 14.6958 32.0814 14.9285C31.9989 18.6984 30.8335 21.9427 28.4443 24.8887C28.3654 24.9964 28.2866 25.1041 28.2054 25.215C25.9256 28.176 22.2395 29.7286 18.7061 30.5088C14.4682 31.0173 10.1175 30.3123 6.62553 27.7296C6.18867 27.3818 5.76009 27.0263 5.33317 26.6664C5.18536 26.5528 5.03755 26.4391 4.88525 26.322C2.2353 24.1186 0.568361 20.3907 -0.000162758 17.0664C-0.0734115 16.1685 -0.0830048 15.2781 -0.0779405 14.3775C-0.0814926 14.1465 -0.0850447 13.9155 -0.0887044 13.6775C-0.0885898 13.4571 -0.0884753 13.2366 -0.0883572 13.0095C-0.0886866 12.811 -0.0890161 12.6125 -0.0893555 12.408C-0.000162758 11.9109 -0.000162758 11.9109 0.327398 11.5812C0.832655 11.3129 1.25292 11.2863 1.82206 11.2553C2.01364 11.2436 2.20523 11.2319 2.40262 11.2199C2.62124 11.2099 2.62124 11.2099 2.84428 11.1998C2.89401 11.0577 2.94374 10.9156 2.99498 10.7692C4.34592 7.06823 6.64883 4.26235 10.1998 2.51088C14.9051 0.591891 20.0175 1.03313 24.2075 3.94699Z"
            fill="black" />
        <path
            d="M16.011 2.9778C16.1784 2.97642 16.3458 2.97505 16.5183 2.97363C19.6829 2.98244 22.5025 4.42071 24.7777 6.55558C25.8762 7.72349 27.5554 9.88313 27.5554 11.5556C19.9288 11.5556 12.3021 11.5556 4.44434 11.5556C5.58489 8.13391 7.53641 5.80321 10.6666 4.08891C12.4032 3.23756 14.0891 2.96195 16.011 2.9778Z"
            fill="#FAFAFA" />
    </g>
    <defs>
        <clipPath id="clip0_2746_4261">
            <rect width="32" height="32" fill="white" />
        </clipPath>
    </defs>
</svg>